# xmcd
# 
# Track frame offsets:
#     150
#     11422
#     22558
#     33426
#     44367
#     54695
#     73998
#     83048
#     93994
#     106459
#     115256
#     140559
#     151424
#     166881
#     185245
#     199872
#     230571
#     244525
#     258322
#     269999
# 
# Disc length: 3834
# 
# Revision: 1
# Processed by: cddbd v1.5.2PL0 Copyright (c) Steve Scherf et al.
# Submitted via: fre:ac v1.0.31
# 
DISCID=180ef814
DTITLE=The Yardbirds - Shapes Of Things - The Best Of - Disc 1
DYEAR=2010
DGENRE=Rock/Pop
TTITLE0=For Your Love
TTITLE1=Heart Full Of Soul
TTITLE2=Evil Hearted You
TTITLE3=Shape Of Things
TTITLE4=A Certain Girl
TTITLE5=I Wish You Would
TTITLE6=I Ain't Got You
TTITLE7=Boom Boom
TTITLE8=Good Morning Little School Girl
TTITLE9=Talking 'Bout You
TTITLE10=My Girl Sloopy
TTITLE11=Jeff's Boogie
TTITLE12=Train Kept A Rollin'
TTITLE13=Here 'Tis
TTITLE14=Lost Woman
TTITLE15=Smokestack Lightning
TTITLE16=Jeff's Blues
TTITLE17=The Nazz Are Blues
TTITLE18=Got To Hurry
TTITLE19=Too Much Monkey Business
EXTD=
EXTT0=
EXTT1=
EXTT2=
EXTT3=
EXTT4=
EXTT5=
EXTT6=
EXTT7=
EXTT8=
EXTT9=
EXTT10=
EXTT11=
EXTT12=
EXTT13=
EXTT14=
EXTT15=
EXTT16=
EXTT17=
EXTT18=
EXTT19=
PLAYORDER=
